<?xml version="1.0" encoding="utf-8"?>
<!-- Generator: Adobe Illustrator 17.0.0, SVG Export Plug-In . SVG Version: 6.00 Build 0)  -->
<!DOCTYPE svg PUBLIC "-//W3C//DTD SVG 1.1//EN" "http://www.w3.org/Graphics/SVG/1.1/DTD/svg11.dtd">
<svg version="1.1" id="Layer_1" xmlns="http://www.w3.org/2000/svg" xmlns:xlink="http://www.w3.org/1999/xlink" x="0px" y="0px"
	 width="304.602px" height="353px" viewBox="0 0 304.602 353" enable-background="new 0 0 304.602 353" xml:space="preserve">
<g>
	<path fill="#FFFFFF" d="M104.375,273.512c-53.103,0-96.306-43.2-96.306-96.303s43.203-96.306,96.306-96.306
		s96.306,43.203,96.306,96.306S157.478,273.512,104.375,273.512z M104.375,93.186c-46.329,0-84.02,37.693-84.02,84.023
		c0,46.328,37.691,84.02,84.02,84.02s84.02-37.693,84.02-84.02C188.396,130.879,150.704,93.186,104.375,93.186z"/>
</g>
<g>
	<path fill="#FFFFFF" d="M199.39,281.422L95.177,177.209L199.39,72.997l104.212,104.212L199.39,281.422z M112.55,177.209
		l86.84,86.84l86.84-86.84l-86.84-86.84L112.55,177.209z"/>
</g>
<g>
	<path fill="#FFFFFF" d="M7.802,60.345V4.914h21.857c17.367,0,29.418,11.054,29.418,27.758S47.026,60.345,29.659,60.345H7.802z
		 M47.026,32.672c0-9.806-5.981-17.37-17.367-17.37H19.602v34.654h10.057C40.628,49.956,47.026,42.061,47.026,32.672z"/>
	<path fill="#FFFFFF" d="M67.472,60.345V4.914h39.224v10.389H79.272V27.02h26.844v10.389H79.272v12.548h27.424v10.389H67.472z"/>
	<path fill="#FFFFFF" d="M112.183,52.533l6.398-8.975c3.908,4.073,9.972,7.478,17.618,7.478c6.481,0,9.64-2.991,9.64-6.147
		c0-9.809-31.911-3.076-31.911-23.934c0-9.226,7.978-16.87,21.026-16.87c8.809,0,16.121,2.659,21.606,7.727l-6.564,8.643
		c-4.487-4.156-10.471-6.067-16.124-6.067c-5.067,0-7.892,2.245-7.892,5.567c0,8.809,31.826,2.911,31.826,23.602
		c0,10.14-7.23,17.784-22.188,17.784C124.98,61.342,117.336,57.769,112.183,52.533z"/>
	<path fill="#FFFFFF" d="M165.786,60.345V4.914h11.803v55.431H165.786z"/>
	<path fill="#FFFFFF" d="M185.898,32.672C185.898,15.137,199.194,4,215.398,4c11.554,0,18.784,5.818,22.937,12.382l-9.806,5.319
		c-2.494-3.905-7.23-7.23-13.131-7.23c-10.054,0-17.367,7.729-17.367,18.201s7.312,18.198,17.367,18.198
		c4.904,0,9.557-2.159,11.803-4.236v-6.65h-14.628V29.679h26.427v21.274c-5.65,6.318-13.545,10.471-23.602,10.471
		C199.194,61.425,185.898,50.122,185.898,32.672z"/>
	<path fill="#FFFFFF" d="M286.619,60.345l-26.424-36.15v36.15h-11.803V4.914h12.134l25.679,34.822V4.914h11.8v55.431H286.619z"/>
	<path fill="#FFFFFF" d="M40.585,348.538c-1.165-1.08-2.576-2.494-4.156-4.156c-4.156,3.159-9.223,5.153-15.125,5.153
		c-10.14,0-18.284-5.319-18.284-16.039c0-8.392,5.57-12.797,11.885-15.956c-2.162-4.073-3.656-8.226-3.656-11.965
		c0-7.481,6.647-13.296,15.87-13.296c7.812,0,14.545,4.319,14.545,11.717c0,8.475-6.815,12.048-13.631,15.207
		c1.662,2.242,3.408,4.322,4.822,5.984c1.58,1.994,3.156,3.822,4.653,5.65c2.328-3.573,4.073-7.478,5.07-10.72l8.475,3.905
		c-1.994,4.405-4.57,9.143-7.727,13.379c3.322,3.573,6.812,7.232,10.72,11.137H40.585z M30.779,338.401
		c-2.494-2.745-4.822-5.404-6.15-7.064c-1.828-2.245-3.742-4.739-5.57-7.315c-2.908,2.079-4.819,4.656-4.819,8.478
		c0,5.401,3.988,8.726,8.561,8.726C25.626,341.226,28.368,340.146,30.779,338.401z M24.212,313.302
		c4.653-2.242,8.312-4.653,8.312-8.726c0-2.908-2.162-4.653-4.904-4.653c-3.242,0-5.818,2.494-5.818,5.901
		C21.801,308.066,22.801,310.643,24.212,313.302z"/>
	<path fill="#FFFFFF" d="M78.815,320.866c0-17.035,12.882-28.672,29.501-28.672c12.217,0,19.281,6.65,23.188,13.548l-10.14,4.984
		c-2.325-4.487-7.312-8.061-13.048-8.061c-10.054,0-17.367,7.729-17.367,18.201s7.312,18.198,17.367,18.198
		c5.736,0,10.723-3.491,13.048-8.061l10.14,4.904c-3.99,6.898-10.971,13.628-23.188,13.628
		C91.697,349.535,78.815,337.901,78.815,320.866z"/>
	<path fill="#FFFFFF" d="M135.908,320.866c0-16.704,12.217-28.672,28.921-28.672c16.787,0,29.004,11.968,29.004,28.672
		c0,16.704-12.217,28.669-29.004,28.669C148.125,349.535,135.908,337.57,135.908,320.866z M181.699,320.866
		c0-10.389-6.65-18.201-16.87-18.201c-10.223,0-16.787,7.812-16.787,18.201c0,10.303,6.564,18.198,16.787,18.198
		C175.049,339.064,181.699,331.169,181.699,320.866z"/>
	<path fill="#FFFFFF" d="M202.145,348.538v-55.431h21.857c17.367,0,29.418,11.054,29.418,27.758
		c0,16.704-12.051,27.673-29.418,27.673H202.145z M241.369,320.866c0-9.806-5.981-17.37-17.367-17.37h-10.057v34.654h10.057
		C234.97,338.15,241.369,330.255,241.369,320.866z"/>
	<path fill="#FFFFFF" d="M261.815,348.538v-55.431h39.224v10.389h-27.424v11.717h26.844v10.389h-26.844v12.548h27.424v10.389
		H261.815z"/>
</g>
</svg>
