<?xml version="1.0" encoding="utf-8"?>
<!-- Generator: Adobe Illustrator 17.0.0, SVG Export Plug-In . SVG Version: 6.00 Build 0)  -->
<!DOCTYPE svg PUBLIC "-//W3C//DTD SVG 1.1//EN" "http://www.w3.org/Graphics/SVG/1.1/DTD/svg11.dtd">
<svg version="1.1" id="Layer_1" xmlns="http://www.w3.org/2000/svg" xmlns:xlink="http://www.w3.org/1999/xlink" x="0px" y="0px"
	 width="566px" height="150px" viewBox="0 0 566 150" enable-background="new 0 0 566 150" xml:space="preserve">
<g>
	<path fill="#FFFFFF" d="M49.465,48.257c6.491-14.734,10.7-24.206,14.208-34.205l18.279-1.578l39.818,88.545
		c4.736,10.875,11.402,25.084,16.664,35.783l-30.934-0.026L96.16,109.615H49.99c-2.805,6.664-8.419,21.573-10.524,27.187H9.822
		L49.465,48.257z M57.183,90.846h31.609L73.145,51.239L57.183,90.846z"/>
	<path fill="#FFFFFF" d="M248.587,136.803c0.876-7.543,1.051-19.647,1.051-29.821V87.513c0-10.174-2.104-16.138-10.349-16.138
		c-9.296,0-16.312,7.543-16.312,16.313v31.047c0,6.139,0.175,13.507,0.701,18.067h-28.416c0.876-7.543,1.051-19.647,1.051-29.821
		V87.513c0-10.174-1.753-16.138-9.997-16.138c-9.296,0-16.488,7.543-16.488,16.313v31.047c0,6.139,0.175,13.507,0.701,18.067h-28.24
		c0.702-7.543,1.053-19.647,1.053-29.821V82.776c0-10.172-0.35-21.398-1.053-28.941c6.139,0,20.873-1.754,26.135-2.281l1.229,15.788
		c7.016-10.526,17.891-16.84,28.065-16.84c13.507,0,21.223,6.841,23.856,17.54c6.315-10.524,17.365-17.54,29.118-17.54
		c17.54,0,25.61,11.226,25.61,29.82v38.413c0,6.139,0.175,13.507,0.701,18.067H248.587z"/>
	<path fill="#FFFFFF" d="M300.327,40.114c-8.595,0-15.261-5.789-15.261-13.682c0-8.595,7.016-14.734,15.786-14.734
		c8.245,0,15.086,5.964,15.086,13.857C315.939,34.15,308.922,40.114,300.327,40.114z M285.242,136.803
		c0.879-7.543,1.229-18.418,1.229-28.767V82.953c0-10.174-0.35-22.277-1.229-29.82c6.315,0,23.156-1.052,28.418-1.579
		c-0.528,4.562-0.703,12.63-0.703,18.769v49.465c0,6.139,0.175,12.454,0.703,17.015H285.242z"/>
	<path fill="#FFFFFF" d="M388.905,78.216c-5.788-4.735-12.629-7.191-19.644-7.191c-13.507,0-22.627,10.349-22.627,23.505
		c0,16.137,11.4,24.556,23.853,24.556c8.595,0,14.735-2.454,22.452-9.47l-0.876,23.152c-8.245,4.911-15.611,7.193-26.485,7.193
		c-27.714,0-45.257-19.296-45.257-42.448c0-26.312,18.944-47.01,46.836-47.01c9.47,0,19.295,2.631,26.485,7.543L388.905,78.216z"/>
	<path fill="#FFFFFF" d="M459.942,136.803l-2.807-14.734c-6.138,10.876-17.365,17.892-28.415,17.892
		c-18.418,0-27.714-11.051-27.714-31.924v-25.61c0-9.999-0.352-21.049-0.878-28.942c9.823,0,19.997-0.527,28.24-1.229
		c-0.701,4.56-0.876,13.332-0.876,19.471v29.818c0,11.929,3.158,17.54,12.978,17.54c7.369,0,16.315-7.191,16.315-16.311V82.426
		c0-9.999-0.35-21.049-1.053-28.942c9.823,0,20.348-0.527,28.592-1.229c-0.703,4.56-1.053,13.332-1.053,19.471v35.957
		c0,10.174,0.35,21.225,1.228,29.119H459.942z"/>
	<path fill="#FFFFFF" d="M555.008,56.291L549.22,75.06c-5.965-3.685-13.332-6.14-20.523-6.14c-7.016,0-11.402,2.456-11.402,7.543
		c0,10.701,41.396,8.42,41.396,35.082c0,18.243-15.258,28.416-36.134,28.416c-9.471,0-24.028-2.807-31.398-7.016l0.879-21.05
		c7.716,4.737,19.819,9.472,30.169,9.472c7.544,0,11.928-2.806,11.928-7.367c0-12.279-41.046-8.946-41.046-36.485
		c0-15.085,12.807-27.013,33.679-27.013C537.818,50.502,548.52,53.133,555.008,56.291z"/>
</g>
</svg>
