<?xml version="1.0" encoding="utf-8"?>
<!-- Generator: Adobe Illustrator 15.1.0, SVG Export Plug-In  -->
<!DOCTYPE svg PUBLIC "-//W3C//DTD SVG 1.1//EN" "http://www.w3.org/Graphics/SVG/1.1/DTD/svg11.dtd" [
	<!ENTITY ns_flows "http://ns.adobe.com/Flows/1.0/">
]>
<svg version="1.1"
	 xmlns="http://www.w3.org/2000/svg" xmlns:xlink="http://www.w3.org/1999/xlink" xmlns:a="http://ns.adobe.com/AdobeSVGViewerExtensions/3.0/"
	 x="0px" y="0px" width="554px" height="127px" viewBox="0 0.5 554 127" overflow="visible" enable-background="new 0 0.5 554 127"
	 xml:space="preserve">
<defs>
</defs>
<path fill-rule="evenodd" clip-rule="evenodd" fill="#F59E56" d="M235.841,26.292l7.082,17.076l-75.688,31.39l-7.082-17.076
	L235.841,26.292z"/>
<path fill-rule="evenodd" clip-rule="evenodd" fill="#F59E56" d="M160.154,89.792l7.082-17.075l75.688,31.389l-7.082,17.076
	L160.154,89.792z"/>
<path fill="#A2234A" d="M290.683,68.029c-5.42-2.539-8.937-4.528-10.547-5.969c-1.611-1.439-2.417-3.333-2.417-5.676
	c0-2.245,0.816-4.149,2.454-5.713c1.635-1.562,3.648-2.344,6.041-2.344c2.979,0,5.2,1.014,6.665,3.04
	c1.466,2.027,2.197,4.7,2.197,8.02h19.922l0.146-0.439c0.244-7.178-2.283-13.122-7.58-17.834
	c-5.299-4.711-12.392-7.068-21.277-7.068c-8.495,0-15.319,2.271-20.472,6.812s-7.727,10.034-7.727,16.479
	c0,5.909,2.024,10.741,6.079,14.502c4.053,3.761,10.106,7.153,18.164,10.181c5.174,2.395,8.666,4.42,10.474,6.079
	c1.806,1.66,2.71,3.662,2.71,6.007c0,2.441-0.771,4.383-2.309,5.821c-1.538,1.44-3.771,2.161-6.701,2.161
	c-3.417,0-6.104-0.939-8.057-2.818c-1.953-1.88-2.979-4.97-3.075-9.267h-18.75l-0.221,0.438c-0.245,6.69,2.318,12.672,7.69,17.944
	c5.371,5.272,12.671,7.91,21.898,7.91c8.837,0,15.954-2.147,21.351-6.444c5.396-4.297,8.094-9.814,8.094-16.554
	c0-6.2-2.039-11.243-6.115-15.124C305.244,74.291,299.031,70.91,290.683,68.029z"/>
<path fill="#A2234A" d="M357.858,34.045c-3.564,0-6.824,0.965-9.777,2.893c-2.955,1.929-5.481,4.651-7.581,8.167V0.5h-20.581
	v114.258H340.5v-58.96c1.221-1.758,2.723-3.113,4.505-4.065c1.781-0.952,3.869-1.428,6.263-1.428c3.026,0,5.261,1.307,6.702,3.918
	c1.438,2.613,2.159,7.19,2.159,13.733v46.802h20.654V68.102c0-11.572-2.051-20.142-6.152-25.708
	C370.53,36.828,364.938,34.045,357.858,34.045z"/>
<path fill="#A2234A" d="M445.622,94.25V61.73c0-8.886-2.589-15.722-7.765-20.508c-5.176-4.785-11.938-7.178-20.287-7.178
	c-8.888,0-16.04,2.393-21.46,7.178c-5.42,4.786-7.983,10.596-7.69,17.432l0.146,0.439l19.922,0.073c0-3.173,0.659-5.614,1.977-7.324
	c1.319-1.708,3.247-2.563,5.787-2.563c2.88,0,5.055,1.062,6.519,3.186c1.466,2.124,2.197,5.164,2.197,9.119v6.592h-9.009
	c-10.157,0-17.787,2.137-22.889,6.408c-5.104,4.273-7.653,10.268-7.653,17.98c0,7.375,1.94,13.172,5.822,17.396
	s9.436,6.335,16.663,6.335c4.148,0,7.653-1.271,10.51-3.81c2.857-2.537,5.164-5.785,6.922-9.74c0.243,2.148,0.622,4.248,1.136,6.299
	c0.513,2.051,1.158,3.955,1.94,5.713h20.508c-1.124-3.32-1.954-6.641-2.489-9.961C445.891,101.477,445.622,97.961,445.622,94.25z
	 M424.969,92.345c-0.782,2.394-2.247,4.433-4.396,6.115c-2.148,1.687-4.591,2.526-7.325,2.526c-2.195,0-3.954-0.854-5.271-2.562
	c-1.319-1.708-1.979-3.93-1.979-6.665c0-3.417,0.793-6.25,2.38-8.496c1.586-2.245,4.113-3.368,7.581-3.368h9.01V92.345z"/>
<path fill="#A2234A" d="M492.423,34.301c-0.781-0.17-1.637-0.256-2.562-0.256c-3.076,0-5.799,1.111-8.166,3.333
	c-2.369,2.223-4.312,5.335-5.823,9.338l-0.806-11.206h-19.263v79.248h20.58V60.119c0.83-2.197,2.015-3.906,3.554-5.127
	c1.537-1.22,3.453-1.831,5.749-1.831l7.03,0.22l2.124-18.457C494.009,34.68,493.203,34.472,492.423,34.301z"/>
<path fill="#A2234A" d="M554.466,69.714L554.466,69.714c-0.001-10.986-2.49-19.677-7.472-26.074
	c-4.979-6.396-12.134-9.595-21.46-9.595c-10.06,0-17.859,3.761-23.401,11.279c-5.542,7.52-8.312,17.261-8.312,29.224v3.003
	c0,11.378,2.881,20.68,8.643,27.904c5.762,7.229,13.867,10.841,24.316,10.841c5.518,0,10.681-0.879,15.49-2.638
	c4.809-1.758,8.631-3.93,11.463-6.519l-5.348-12.891c-3.175,2.051-6.141,3.553-8.898,4.504c-2.759,0.952-6.188,1.429-10.29,1.429
	c-4.834,0-8.411-1.732-10.729-5.199c-2.319-3.468-3.65-8.131-3.991-13.99h39.989V69.714z M534.251,67.369L534.251,67.369h-19.63
	c0.439-5.32,1.502-9.508,3.187-12.56c1.686-3.051,4.26-4.578,7.728-4.578c3.124,0,5.358,1.344,6.702,4.028
	c1.342,2.686,2.014,6.445,2.014,11.278V67.369z"/>
<path fill="#F59E56" d="M42.113,42.26c-2.003-2.783-4.284-4.931-6.848-6.445c-2.563-1.513-5.433-2.271-8.606-2.271
	c-8.496,0-15.062,3.809-19.701,11.426C2.317,52.587,0,62.621,0,75.072v1.539c0,11.816,2.317,21.301,6.958,28.455
	c4.639,7.152,11.156,10.729,19.556,10.729c3.613,0,6.836-0.893,9.668-2.674c2.831-1.781,5.298-4.383,7.396-7.801l1.538,8.937h17.651
	V0H42.113V42.26z M37.829,98.033c-1.733,1.051-3.725,1.574-5.97,1.574c-4.054,0-6.958-2.037-8.716-6.115
	c-1.758-4.075-2.637-9.705-2.637-16.883v-1.537c0-7.567,0.902-13.671,2.71-18.312c1.806-4.638,4.712-6.958,8.716-6.958
	c2.147,0,4.102,0.635,5.859,1.904c1.758,1.271,3.196,3.028,4.32,5.273v36.403h0.001C40.989,95.434,39.562,96.984,37.829,98.033z"/>
<path fill="#F59E56" d="M100.718,33.545c-10.305,0-18.299,3.748-23.987,11.243c-5.688,7.496-8.532,17.201-8.532,29.115v1.685
	c0,11.964,2.856,21.655,8.569,29.077c5.713,7.423,13.744,11.133,24.097,11.133c10.204,0,18.176-3.723,23.913-11.169
	s8.606-17.127,8.606-29.041v-1.685c0-11.914-2.882-21.619-8.644-29.115C118.979,37.293,110.972,33.545,100.718,33.545z
	 M112.729,75.586c0,7.373-0.929,13.232-2.783,17.578c-1.855,4.347-4.884,6.52-9.082,6.52c-4.395,0-7.508-2.173-9.339-6.52
	c-1.831-4.346-2.746-10.205-2.746-17.578V73.9c0-7.226,0.915-13.061,2.746-17.504c1.831-4.442,4.896-6.665,9.192-6.665
	c4.296,0,7.372,2.21,9.229,6.628c1.854,4.42,2.783,10.267,2.783,17.542V75.586z"/>
<path fill="#A2234A" d="M211.326,43.287c0,6.752,1.612,12.221,4.836,16.409c3.224,4.188,7.756,6.282,13.599,6.282
	c5.759,0,10.257-2.101,13.495-6.303c3.237-4.201,4.857-9.664,4.857-16.388v-0.95c0-6.723-1.626-12.199-4.877-16.43
	c-3.252-4.229-7.771-6.344-13.557-6.344c-5.814,0-10.326,2.115-13.536,6.344c-3.21,4.23-4.815,9.707-4.815,16.43V43.287z"/>
<path fill="#A2234A" d="M211.326,105.258c0,6.752,1.612,12.222,4.836,16.41c3.224,4.188,7.756,6.281,13.599,6.281
	c5.759,0,10.257-2.1,13.495-6.303c3.237-4.201,4.857-9.664,4.857-16.389v-0.949c0-6.724-1.626-12.199-4.877-16.43
	c-3.252-4.229-7.771-6.345-13.557-6.345c-5.814,0-10.326,2.115-13.536,6.345c-3.21,4.23-4.815,9.706-4.815,16.43V105.258z"/>
<path fill="#A2234A" d="M140.49,73.258c0,6.752,1.612,12.222,4.836,16.41c3.224,4.188,7.756,6.281,13.599,6.281
	c5.759,0,10.257-2.1,13.495-6.303c3.237-4.201,4.857-9.664,4.857-16.389v-0.949c0-6.724-1.626-12.199-4.877-16.43
	c-3.252-4.229-7.771-6.345-13.557-6.345c-5.814,0-10.326,2.115-13.536,6.345c-3.21,4.23-4.815,9.706-4.815,16.43V73.258z"/>
</svg>
